<?xml version="1.0" encoding="utf-8" ?>
<svg baseProfile="full" height="100%" version="1.1" viewBox="0,0,1000,120" width="100%" xmlns="http://www.w3.org/2000/svg" xmlns:ev="http://www.w3.org/2001/xml-events" xmlns:xlink="http://www.w3.org/1999/xlink"><defs /><rect fill="white" height="120" width="1000" x="0" y="0" /><path d="M0,0 M338.55322265625,50.18557357788086 L338.33905029296875,49.85667037963867 L338.045654296875,49.49502182006836 L337.7020263671875,49.30657196044922 L337.3435363769531,49.558204650878906 L336.8497619628906,50.33684158325195 L336.15216064453125,51.67504119873047 L335.1985778808594,53.518646240234375 L334.014404296875,55.789947509765625 L332.66827392578125,58.32907485961914 L331.28631591796875,60.94589614868164 L329.9940185546875,63.43475341796875 L328.921875,65.59207916259766 L328.1375732421875,67.24600219726562 L327.6203918457031,68.30619812011719 L327.3320617675781,68.83052825927734 L327.20184326171875,68.99097442626953 M335.032470703125,49.78350830078125 L335.0881042480469,49.7612419128418 L335.233642578125,49.88453674316406 L335.52655029296875,50.304718017578125 L336.00799560546875,51.14888381958008 L336.70477294921875,52.407752990722656 L337.5816650390625,54.00371170043945 L338.6036682128906,55.81985092163086 L339.7529296875,57.7406005859375 L340.9950256347656,59.66853713989258 L342.2572937011719,61.51389694213867 L343.4306945800781,63.167938232421875 L344.333984375,64.49462890625 L344.83319091796875,65.38253784179688 L344.91961669921875,65.79778289794922 L344.7673034667969,65.8762435913086 L344.5617370605469,65.79737854003906 M332.79730224609375,59.73002243041992 L332.998779296875,59.6895637512207 L333.70794677734375,59.60371017456055 L335.1280212402344,59.46230697631836 L337.24609375,59.27860641479492 L339.7998962402344,59.077857971191406 L342.4892272949219,58.8773078918457 L345.0622253417969,58.699241638183594 L347.4004821777344,58.563785552978516 L349.4265441894531,58.47438430786133 L351.0955505371094,58.43023681640625 L352.24749755859375,58.419795989990234 L352.8786315917969,58.42193603515625 M355.3376159667969,59.215450286865234 L355.3152160644531,59.71736145019531 L355.2701721191406,60.61136245727539 L355.20306396484375,61.819671630859375 L355.1074523925781,63.082847595214844 L354.974609375,64.20626831054688 L354.7916259765625,65.04696655273438 L354.5877990722656,65.55846405029297 L354.37744140625,65.69319915771484 L354.2193298339844,65.43069458007812 L354.1761474609375,64.73912048339844 L354.3324279785156,63.63715362548828 L354.7584228515625,62.240909576416016 L355.5194091796875,60.7367057800293 L356.6230163574219,59.29154586791992 L358.0516662597656,58.042015075683594 L359.7454833984375,57.058624267578125 L361.63043212890625,56.37672805786133 L363.62347412109375,56.01255798339844 L365.64117431640625,55.956180572509766 L367.55731201171875,56.14250564575195 L369.24322509765625,56.470314025878906 L370.45233154296875,56.782169342041016 L371.12420654296875,56.98865509033203 M374.64105224609375,57.482566833496094 L374.63726806640625,57.88999938964844 L374.635009765625,58.71955490112305 L374.6314697265625,60.00734329223633 L374.6240234375,61.66627883911133 L374.59124755859375,63.60821533203125 L374.5094299316406,65.7204360961914 L374.37664794921875,67.88201141357422 L374.2144775390625,69.94493865966797 L374.04803466796875,71.74087524414062 L373.8991394042969,73.14842224121094 L373.76226806640625,74.08576202392578 L373.6280212402344,74.5098648071289 L373.5012512207031,74.40469360351562 L373.4112854003906,73.76692199707031 L373.4012145996094,72.60576629638672 L373.5161437988281,70.99947357177734 L373.80718994140625,69.0718765258789 L374.3228454589844,66.96198272705078 L375.11065673828125,64.80970764160156 L376.2161560058594,62.738407135009766 L377.6639709472656,60.85433578491211 L379.4376220703125,59.26943588256836 L381.4775695800781,58.08796310424805 L383.6856384277344,57.386566162109375 L385.9244384765625,57.194297790527344 L388.0119934082031,57.46099853515625 L389.7740783691406,58.084716796875 L391.05584716796875,58.92625427246094 L391.7645263671875,59.85576248168945 L391.90093994140625,60.78435134887695 L391.52093505859375,61.66119384765625 L390.6630554199219,62.42243576049805 L389.39593505859375,63.01140213012695 L387.80902099609375,63.36881637573242 L386.03338623046875,63.462989807128906 L384.2388610839844,63.26544189453125 L382.62677001953125,62.82089614868164 L381.3293151855469,62.20403289794922 L380.47760009765625,61.632591247558594 L380.0502014160156,61.24440383911133 M397.4145202636719,56.19361877441406 L397.41156005859375,56.491329193115234 L397.40692138671875,57.09712600708008 L397.40350341796875,58.02326583862305 L397.3877868652344,59.17828369140625 L397.35858154296875,60.43545913696289 L397.3060302734375,61.65058135986328 L397.24859619140625,62.57862091064453 L397.2044372558594,63.127220153808594 M397.72296142578125,48.84838104248047 L397.69378662109375,48.616600036621094 L397.71038818359375,48.33941650390625 L397.7605895996094,48.10591125488281 L397.8321533203125,48.00517272949219 M408.05560302734375,46.999542236328125 L408.01434326171875,47.32536697387695 L407.95306396484375,48.041748046875 L407.8780822753906,49.20819091796875 L407.8026123046875,50.754642486572266 L407.7341003417969,52.57863998413086 L407.6767272949219,54.560821533203125 L407.65228271484375,56.58628463745117 L407.7072448730469,58.54551696777344 L407.85235595703125,60.315185546875 L408.07159423828125,61.7674674987793 L408.32672119140625,62.82786560058594 L408.5122985839844,63.409934997558594 L408.5411376953125,63.49488830566406 L408.395263671875,63.146263122558594 L408.17132568359375,62.65039825439453 L407.97247314453125,62.23004150390625 M403.9273681640625,57.05900192260742 L404.15789794921875,56.89842224121094 L404.8056945800781,56.65447998046875 L406.031494140625,56.37247848510742 L407.84674072265625,56.128334045410156 L410.11541748046875,55.94248962402344 L412.63238525390625,55.818660736083984 L415.22479248046875,55.7553825378418 L417.7104187011719,55.74981689453125 L419.939453125,55.78689193725586 L421.5747375488281,55.835968017578125 L422.51300048828125,55.87380599975586 M446.8667907714844,50.701656341552734 L447.0350341796875,50.76240921020508 L447.33056640625,50.99046325683594 L447.7445068359375,51.49817657470703 L448.19195556640625,52.364410400390625 L448.62579345703125,53.607276916503906 L448.9757385253906,55.19245147705078 L449.22265625,57.042198181152344 L449.3977966308594,59.03586196899414 L449.5514221191406,61.02899169921875 L449.7278137207031,62.87993621826172 L449.94451904296875,64.4869384765625 L450.1352844238281,65.71505737304688 L450.2340087890625,66.4686050415039 L450.2130126953125,66.70796966552734 L450.1131896972656,66.61309051513672 L450.00970458984375,66.39799499511719 M440.6414794921875,49.6357421875 L440.6241455078125,49.48012924194336 L440.8433532714844,49.242156982421875 L441.5147399902344,48.95201873779297 L442.8106689453125,48.667720794677734 L444.71832275390625,48.39573287963867 L447.125732421875,48.152408599853516 L449.85919189453125,47.93221664428711 L452.8079833984375,47.756290435791016 L455.79693603515625,47.63648223876953 L458.6507568359375,47.57867431640625 L460.84674072265625,47.566932678222656 L462.1668701171875,47.58241271972656 M470.2436828613281,59.4690055847168 L469.96978759765625,59.178192138671875 L469.4347229003906,58.74016571044922 L468.59808349609375,58.27675247192383 L467.49462890625,57.995426177978516 L466.174560546875,58.02094268798828 L464.7119445800781,58.42390823364258 L463.24420166015625,59.21363830566406 L461.9417724609375,60.34199523925781 L460.97589111328125,61.704227447509766 L460.4993896484375,63.15311813354492 L460.6378173828125,64.51817321777344 L461.41265869140625,65.6305160522461 L462.79608154296875,66.36338806152344 L464.671142578125,66.62269592285156 L466.8714904785156,66.37483978271484 L469.18927001953125,65.65025329589844 L471.40118408203125,64.54248046875 L473.291015625,63.19557189941406 L474.6986083984375,61.777427673339844 L475.53033447265625,60.43080520629883 L475.8200988769531,59.2751350402832 L475.7033996582031,58.378326416015625 L475.4327087402344,57.801517486572266 L475.20123291015625,57.51423645019531 M480.9530944824219,48.608673095703125 L481.0003662109375,48.61644744873047 L481.07061767578125,48.8046875 L481.15185546875,49.335201263427734 L481.21783447265625,50.33279037475586 L481.26641845703125,51.79187774658203 L481.2969055175781,53.631954193115234 L481.32061767578125,55.709449768066406 L481.3453063964844,57.842411041259766 L481.40875244140625,59.8371467590332 L481.5029296875,61.51837921142578 L481.62677001953125,62.760066986083984 L481.7939758300781,63.50178909301758 L482.060791015625,63.723304748535156 L482.51287841796875,63.419898986816406 L483.28375244140625,62.6165771484375 L484.4085388183594,61.41019058227539 L485.87103271484375,59.99267578125 L487.5917053222656,58.600318908691406 L489.4583740234375,57.44173812866211 L491.37548828125,56.66646194458008 L493.26177978515625,56.33354949951172 L495.03350830078125,56.45210266113281 L496.6275634765625,57.00321960449219 L497.994873046875,57.93717575073242 L499.11859130859375,59.168426513671875 L500.0456848144531,60.59525680541992 L500.8448486328125,62.0830192565918 L501.64764404296875,63.47896957397461 L502.53741455078125,64.63829803466797 L503.529052734375,65.46175384521484 L504.3879089355469,65.92591094970703 L504.9622802734375,66.11116027832031 M528.93798828125,51.005401611328125 L529.0596923828125,50.96370315551758 L529.2472534179688,51.0075569152832 L529.4679565429688,51.26537322998047 L529.6620483398438,51.87963104248047 L529.82177734375,52.91845703125 L529.9042358398438,54.37199783325195 L529.9308471679688,56.16229248046875 L529.9274291992188,58.16334915161133 L529.9608764648438,60.226802825927734 L530.0675659179688,62.20433044433594 L530.2498779296875,63.974918365478516 L530.4191284179688,65.3728256225586 L530.5006103515625,66.2706069946289 L530.4434204101562,66.61445617675781 L530.3211669921875,66.58557891845703 L530.2012939453125,66.40292358398438 M521.1844482421875,49.63493347167969 L521.1055908203125,49.502227783203125 L521.0866088867188,49.362857818603516 L521.2617797851562,49.277503967285156 L521.807861328125,49.30237579345703 L522.8344116210938,49.388938903808594 L524.40576171875,49.491981506347656 L526.4696044921875,49.551231384277344 L528.955810546875,49.55534362792969 L531.7457885742188,49.50267791748047 L534.7254638671875,49.40497970581055 L537.7847900390625,49.281822204589844 L540.8513793945312,49.16353988647461 L543.75341796875,49.06308364868164 L546.3489990234375,48.99824905395508 L548.25,48.96882629394531 L549.3394165039062,48.962398529052734 M553.5281982421875,58.13982009887695 L553.2559814453125,57.93964767456055 L552.6871337890625,57.69025802612305 L551.7625122070312,57.52207565307617 L550.5296630859375,57.62107849121094 L549.071044921875,58.062713623046875 L547.537109375,58.856971740722656 L546.131591796875,59.94557571411133 L545.0673217773438,61.229164123535156 L544.5169067382812,62.57920455932617 L544.5980224609375,63.862674713134766 L545.3377685546875,64.92735290527344 L546.6956787109375,65.64063262939453 L548.5774536132812,65.91185760498047 L550.8197021484375,65.69114685058594 L553.211669921875,64.99675750732422 L555.5107421875,63.91407775878906 L557.4793701171875,62.58245849609375 L558.9215087890625,61.16141128540039 L559.7560424804688,59.80540466308594 L559.9512329101562,58.62592697143555 L559.5919189453125,57.695919036865234 L558.8419799804688,57.044677734375 L558.074951171875,56.67193603515625 L557.5218505859375,56.51258850097656 M565.0650634765625,65.07760620117188 L565.079833984375,66.24408721923828 L565.0931396484375,68.1359634399414 L565.090087890625,70.52723693847656 L565.038330078125,72.90214538574219 L564.9122314453125,75.03662109375 L564.7146606445312,76.75890350341797 L564.4869384765625,77.99815368652344 L564.2696533203125,78.65519714355469 L564.114013671875,78.71736145019531 L564.0341796875,78.1805191040039 L564.03125,77.05795288085938 L564.1131591796875,75.42227935791016 L564.3060302734375,73.39774322509766 L564.6492919921875,71.12970733642578 L565.1884765625,68.76992797851562 L565.9673461914062,66.44041442871094 L567.03076171875,64.24077606201172 L568.4063720703125,62.273597717285156 L570.0914306640625,60.650272369384766 L572.0418701171875,59.47787857055664 L574.1456298828125,58.83110809326172 L576.26513671875,58.73612594604492 L578.2658081054688,59.16084671020508 L579.998779296875,59.997589111328125 L581.332763671875,61.09542465209961 L582.1663818359375,62.29667663574219 L582.4342041015625,63.46359634399414 L582.1124877929688,64.49356079101562 L581.2508544921875,65.32646179199219 L579.9210205078125,65.91645812988281 L578.2410888671875,66.2303237915039 L576.3746337890625,66.25381469726562 L574.5528564453125,66.0338363647461 L572.9840087890625,65.66081237792969 L571.9068603515625,65.30511474609375 L571.345947265625,65.07096862792969 M587.9248046875,60.479923248291016 L587.8950805664062,60.97212219238281 L587.8502197265625,61.9294319152832 L587.7763671875,63.35433578491211 L587.665771484375,65.10123443603516 L587.5125732421875,67.06477355957031 L587.3155517578125,69.12186431884766 L587.0877685546875,71.14569854736328 L586.8529052734375,72.97285461425781 L586.6217041015625,74.45318603515625 L586.40771484375,75.48324584960938 L586.226318359375,76.01449584960938 L586.09765625,76.04964447021484 L586.0380859375,75.59004211425781 L586.0654296875,74.62149810791016 L586.2144775390625,73.20108032226562 L586.5172729492188,71.42947387695312 L587.00146484375,69.43464660644531 L587.7021484375,67.35478210449219 L588.6525268554688,65.3083267211914 L589.8905639648438,63.3897819519043 L591.4432983398438,61.710628509521484 L593.2936401367188,60.377105712890625 L595.364013671875,59.4749755859375 L597.5364990234375,59.05521011352539 L599.6676025390625,59.117759704589844 L601.6234130859375,59.6074104309082 L603.2898559570312,60.426170349121094 L604.5822143554688,61.454811096191406 L605.4447631835938,62.57789993286133 L605.855224609375,63.702606201171875 L605.8060913085938,64.74713897705078 L605.3089599609375,65.64734649658203 L604.3925170898438,66.35011291503906 L603.1129150390625,66.8139877319336 L601.5753173828125,67.02436065673828 L599.8961181640625,66.97335815429688 L598.235107421875,66.69537353515625 L596.7495727539062,66.26728057861328 L595.6761474609375,65.86068725585938 L595.0731201171875,65.5826644897461 M610.8458251953125,65.16703033447266 L611.297119140625,64.94265747070312 L612.1314697265625,64.501708984375 L613.3310546875,63.84050369262695 L614.703125,63.022789001464844 L616.0647583007812,62.10309982299805 L617.2205200195312,61.14839553833008 L618.0211181640625,60.22146987915039 L618.3882446289062,59.38419723510742 L618.3336791992188,58.703800201416016 L617.8859252929688,58.24319839477539 L617.0801391601562,58.06915283203125 L615.9822387695312,58.25225830078125 L614.6953125,58.81962585449219 L613.385009765625,59.73689651489258 L612.229736328125,60.906333923339844 L611.400146484375,62.200496673583984 L611.02783203125,63.48969268798828 L611.1927490234375,64.66606140136719 L611.947509765625,65.6298599243164 L613.2923583984375,66.28227233886719 L615.1485595703125,66.54621124267578 L617.3843994140625,66.38961029052734 L619.8155517578125,65.83162689208984 L622.239501953125,64.94100952148438 L624.4973754882812,63.830772399902344 L626.4879150390625,62.632164001464844 L628.1326904296875,61.49155044555664 L629.3771362304688,60.524600982666016 L630.1990966796875,59.820858001708984 L630.60302734375,59.43661880493164 L630.6431884765625,59.41514587402344 L630.4412841796875,59.79092025756836 L630.0848388671875,60.55773162841797 L629.6795654296875,61.62062454223633 L629.3084716796875,62.80181884765625 L629.021484375,63.9012451171875 L628.825927734375,64.76568603515625 L628.7237548828125,65.30894470214844 L628.6889038085938,65.48207092285156 L628.755126953125,65.25894927978516 L628.9649658203125,64.61029052734375 L629.39306640625,63.5801887512207 L630.072998046875,62.30167007446289 L631.035888671875,60.94220733642578 L632.296875,59.651222229003906 L633.8681640625,58.54042434692383 L635.7277221679688,57.661380767822266 L637.8858032226562,57.053890228271484 L640.2283935546875,56.72865676879883 L642.5894165039062,56.6473503112793 L644.4685668945312,56.698219299316406 L645.6256103515625,56.779747009277344 M667.4390869140625,46.64980697631836 L667.473388671875,46.647396087646484 L667.54150390625,46.79266357421875 L667.6378173828125,47.232845306396484 L667.7366333007812,48.101287841796875 L667.8218994140625,49.434200286865234 L667.8584594726562,51.18914031982422 L667.8475952148438,53.27034378051758 L667.8140869140625,55.55381393432617 L667.7969970703125,57.892616271972656 L667.840087890625,60.144927978515625 L667.9891357421875,62.19112014770508 L668.2416381835938,63.87480545043945 L668.563720703125,65.06604766845703 L668.8939208984375,65.69822692871094 L669.1466674804688,65.8919906616211 L669.2867431640625,65.8421859741211 M675.5581665039062,47.282012939453125 L675.5760498046875,47.49774169921875 L675.615234375,48.044254302978516 L675.6716918945312,49.02628707885742 L675.7263793945312,50.43410873413086 L675.77392578125,52.18269729614258 L675.8203125,54.15476989746094 L675.8742065429688,56.21139907836914 L675.989990234375,58.230743408203125 L676.173583984375,60.08993911743164 L676.3895263671875,61.668392181396484 L676.5950927734375,62.90510177612305 L676.6827392578125,63.71392059326172 L676.5681762695312,64.04429626464844 L676.2501220703125,63.922279357910156 L675.8758544921875,63.58504867553711 L675.5743408203125,63.24545669555664 M668.1368408203125,58.4554557800293 L668.2672119140625,58.36478805541992 L668.7374267578125,58.21383285522461 L669.7293701171875,58.01380920410156 L671.3135986328125,57.79179382324219 L673.4049072265625,57.54523849487305 L675.836669921875,57.256309509277344 L678.4364013671875,56.912261962890625 L681.0684204101562,56.52865219116211 L683.6314697265625,56.12407302856445 L686.052490234375,55.731929779052734 L688.233154296875,55.378074645996094 L690.061767578125,55.07802963256836 L691.4320678710938,54.83736038208008 L692.2557373046875,54.655113220214844 L692.5181884765625,54.52510070800781 L692.272216796875,54.465293884277344 L691.5807495117188,54.519649505615234 L690.5230102539062,54.7537727355957 L689.200927734375,55.228939056396484 L687.743408203125,55.97074508666992 L686.339599609375,56.96342849731445 L685.1602783203125,58.133060455322266 L684.3531494140625,59.374473571777344 L684.00146484375,60.557552337646484 L684.1431274414062,61.54853439331055 L684.77490234375,62.22364807128906 L685.8724365234375,62.49531173706055 L687.354736328125,62.30364227294922 L689.1243896484375,61.65415954589844 L691.0369873046875,60.613609313964844 L692.925537109375,59.2918701171875 L694.640869140625,57.83810043334961 L696.0418701171875,56.42188262939453 L697.048583984375,55.202877044677734 L697.67578125,54.28655242919922 L697.9912109375,53.715126037597656 L698.0902099609375,53.47121810913086 L698.07861328125,53.54441833496094 L697.98681640625,53.95560836791992 L697.8460083007812,54.74748229980469 L697.7285766601562,55.88517379760742 L697.7008056640625,57.23615264892578 L697.8287353515625,58.60768508911133 L698.1494750976562,59.80966567993164 L698.66796875,60.708839416503906 L699.3887329101562,61.23499298095703 L700.3480224609375,61.34041213989258 L701.5621337890625,60.99793243408203 L703.00634765625,60.23452377319336 L704.5938720703125,59.123512268066406 L706.240478515625,57.79775619506836 L707.8155517578125,56.42353057861328 L709.1791381835938,55.16501235961914 L710.2265014648438,54.143341064453125 L710.8956909179688,53.442020416259766 L711.1808471679688,53.10443878173828 L711.1778564453125,53.15901565551758 L710.9698486328125,53.63530731201172 L710.6300659179688,54.53423309326172 L710.2462158203125,55.760982513427734 L709.898681640625,57.13956069946289 L709.6531372070312,58.46281433105469 L709.548583984375,59.537879943847656 L709.5576782226562,60.26508331298828 L709.634033203125,60.65415954589844 L709.7158813476562,60.7957649230957 L709.76953125,60.80547332763672 M708.8319091796875,46.639068603515625 L708.8001708984375,46.13570785522461 L708.7615356445312,45.52556610107422 L708.7281494140625,45.0 " fill="none" stroke="black" stroke-linecap="round" stroke-width="2" /></svg>